<svg xmlns="http://www.w3.org/2000/svg" width="22.19" height="20.456" viewBox="0 0 22.19 20.456">
  <g id="calendar_8r24d8f769sd" transform="translate(0 -20)">
    <path id="Path_2" data-name="Path 2" d="M20.456,21.734H20.11V21.04a1.04,1.04,0,0,0-2.08,0v.693H4.161V21.04a1.04,1.04,0,0,0-2.08,0v.693H1.734A1.736,1.736,0,0,0,0,23.467V38.723a1.736,1.736,0,0,0,1.734,1.734H20.456a1.736,1.736,0,0,0,1.734-1.734V23.467A1.736,1.736,0,0,0,20.456,21.734Zm-1.734-.693a.347.347,0,0,1,.693,0v1.039h0V23.12a.347.347,0,1,1-.693,0Zm-15.6-.347a.347.347,0,0,1,.347.347v2.08a.347.347,0,1,1-.693,0v-1.04h0V21.04A.347.347,0,0,1,3.12,20.693ZM20.456,39.763H1.734a1.041,1.041,0,0,1-1.04-1.04V25.547H17.336a.347.347,0,1,0,0-.693H.693V23.467a1.041,1.041,0,0,1,1.04-1.04H2.08v.693a1.04,1.04,0,1,0,2.08,0v-.693H18.029v.693a1.04,1.04,0,1,0,2.08,0v-.693h.347a1.041,1.041,0,0,1,1.04,1.04v1.387H20.8a.347.347,0,1,0,0,.693H21.5V38.723A1.041,1.041,0,0,1,20.456,39.763Z"/>
    <path id="Path_3" data-name="Path 3" d="M425.04,132h-.693a.347.347,0,0,0,0,.693h.693a.347.347,0,0,0,0-.693Z" transform="translate(-405.624 -107.146)"/>
    <path id="Path_4" data-name="Path 4" d="M241.04,204h-.693a.347.347,0,1,0,0,.693h.693a.347.347,0,1,0,0-.693Z" transform="translate(-229.599 -176.026)"/>
    <path id="Path_5" data-name="Path 5" d="M241.04,244h-.693a.347.347,0,1,0,0,.693h.693a.347.347,0,1,0,0-.693Z" transform="translate(-229.599 -214.292)"/>
    <path id="Path_6" data-name="Path 6" d="M241.04,284h-.693a.347.347,0,1,0,0,.693h.693a.347.347,0,1,0,0-.693Z" transform="translate(-229.599 -252.558)"/>
    <path id="Path_7" data-name="Path 7" d="M241.04,324h-.693a.347.347,0,1,0,0,.693h.693a.347.347,0,1,0,0-.693Z" transform="translate(-229.599 -290.825)"/>
    <path id="Path_8" data-name="Path 8" d="M241.04,364h-.693a.347.347,0,1,0,0,.693h.693a.347.347,0,1,0,0-.693Z" transform="translate(-229.599 -329.091)"/>
    <path id="Path_9" data-name="Path 9" d="M241.04,404h-.693a.347.347,0,1,0,0,.693h.693a.347.347,0,1,0,0-.693Z" transform="translate(-229.599 -367.358)"/>
    <path id="Path_10" data-name="Path 10" d="M297.04,204h-.693a.347.347,0,0,0,0,.693h.693a.347.347,0,1,0,0-.693Z" transform="translate(-283.172 -176.026)"/>
    <path id="Path_11" data-name="Path 11" d="M297.04,244h-.693a.347.347,0,0,0,0,.693h.693a.347.347,0,0,0,0-.693Z" transform="translate(-283.172 -214.292)"/>
    <path id="Path_12" data-name="Path 12" d="M297.04,284h-.693a.347.347,0,0,0,0,.693h.693a.347.347,0,0,0,0-.693Z" transform="translate(-283.172 -252.558)"/>
    <path id="Path_13" data-name="Path 13" d="M297.04,324h-.693a.347.347,0,0,0,0,.693h.693a.347.347,0,1,0,0-.693Z" transform="translate(-283.172 -290.825)"/>
    <path id="Path_14" data-name="Path 14" d="M297.04,364h-.693a.347.347,0,0,0,0,.693h.693a.347.347,0,0,0,0-.693Z" transform="translate(-283.172 -329.091)"/>
    <path id="Path_15" data-name="Path 15" d="M297.04,404h-.693a.347.347,0,0,0,0,.693h.693a.347.347,0,0,0,0-.693Z" transform="translate(-283.172 -367.358)"/>
    <path id="Path_16" data-name="Path 16" d="M185.04,204h-.693a.347.347,0,0,0,0,.693h.693a.347.347,0,1,0,0-.693Z" transform="translate(-176.026 -176.026)"/>
    <path id="Path_17" data-name="Path 17" d="M185.04,244h-.693a.347.347,0,0,0,0,.693h.693a.347.347,0,0,0,0-.693Z" transform="translate(-176.026 -214.292)"/>
    <path id="Path_18" data-name="Path 18" d="M185.04,284h-.693a.347.347,0,0,0,0,.693h.693a.347.347,0,0,0,0-.693Z" transform="translate(-176.026 -252.558)"/>
    <path id="Path_19" data-name="Path 19" d="M185.04,324h-.693a.347.347,0,0,0,0,.693h.693a.347.347,0,0,0,0-.693Z" transform="translate(-176.026 -290.825)"/>
    <path id="Path_20" data-name="Path 20" d="M185.04,364h-.693a.347.347,0,1,0,0,.693h.693a.347.347,0,1,0,0-.693Z" transform="translate(-176.026 -329.091)"/>
    <path id="Path_21" data-name="Path 21" d="M185.04,404h-.693a.347.347,0,1,0,0,.693h.693a.347.347,0,1,0,0-.693Z" transform="translate(-176.026 -367.358)"/>
    <path id="Path_22" data-name="Path 22" d="M129.04,204h-.693a.347.347,0,0,0,0,.693h.693a.347.347,0,1,0,0-.693Z" transform="translate(-122.453 -176.026)"/>
    <path id="Path_23" data-name="Path 23" d="M129.04,244h-.693a.347.347,0,0,0,0,.693h.693a.347.347,0,1,0,0-.693Z" transform="translate(-122.453 -214.292)"/>
    <path id="Path_24" data-name="Path 24" d="M129.04,284h-.693a.347.347,0,0,0,0,.693h.693a.347.347,0,1,0,0-.693Z" transform="translate(-122.453 -252.558)"/>
    <path id="Path_25" data-name="Path 25" d="M129.04,324h-.693a.347.347,0,0,0,0,.693h.693a.347.347,0,1,0,0-.693Z" transform="translate(-122.453 -290.825)"/>
    <path id="Path_26" data-name="Path 26" d="M129.04,364h-.693a.347.347,0,0,0,0,.693h.693a.347.347,0,1,0,0-.693Z" transform="translate(-122.453 -329.091)"/>
    <path id="Path_27" data-name="Path 27" d="M129.04,404h-.693a.347.347,0,1,0,0,.693h.693a.347.347,0,1,0,0-.693Z" transform="translate(-122.453 -367.358)"/>
    <path id="Path_28" data-name="Path 28" d="M353.04,204h-.693a.347.347,0,1,0,0,.693h.693a.347.347,0,0,0,0-.693Z" transform="translate(-336.745 -176.026)"/>
    <path id="Path_29" data-name="Path 29" d="M353.04,244h-.693a.347.347,0,0,0,0,.693h.693a.347.347,0,0,0,0-.693Z" transform="translate(-336.745 -214.292)"/>
    <path id="Path_30" data-name="Path 30" d="M353.04,284h-.693a.347.347,0,0,0,0,.693h.693a.347.347,0,0,0,0-.693Z" transform="translate(-336.745 -252.558)"/>
    <path id="Path_31" data-name="Path 31" d="M353.04,324h-.693a.347.347,0,0,0,0,.693h.693a.347.347,0,1,0,0-.693Z" transform="translate(-336.745 -290.825)"/>
    <path id="Path_32" data-name="Path 32" d="M353.04,364h-.693a.347.347,0,0,0,0,.693h.693a.347.347,0,1,0,0-.693Z" transform="translate(-336.745 -329.091)"/>
    <path id="Path_33" data-name="Path 33" d="M353.04,404h-.693a.347.347,0,0,0,0,.693h.693a.347.347,0,1,0,0-.693Z" transform="translate(-336.745 -367.358)"/>
    <path id="Path_34" data-name="Path 34" d="M409.04,204h-.693a.347.347,0,1,0,0,.693h.693a.347.347,0,0,0,0-.693Z" transform="translate(-390.317 -176.026)"/>
    <path id="Path_35" data-name="Path 35" d="M409.04,244h-.693a.347.347,0,0,0,0,.693h.693a.347.347,0,0,0,0-.693Z" transform="translate(-390.317 -214.292)"/>
    <path id="Path_36" data-name="Path 36" d="M409.04,284h-.693a.347.347,0,0,0,0,.693h.693a.347.347,0,0,0,0-.693Z" transform="translate(-390.317 -252.558)"/>
    <path id="Path_37" data-name="Path 37" d="M409.04,324h-.693a.347.347,0,0,0,0,.693h.693a.347.347,0,0,0,0-.693Z" transform="translate(-390.317 -290.825)"/>
    <path id="Path_38" data-name="Path 38" d="M409.04,364h-.693a.347.347,0,0,0,0,.693h.693a.347.347,0,1,0,0-.693Z" transform="translate(-390.317 -329.091)"/>
    <path id="Path_39" data-name="Path 39" d="M409.04,404h-.693a.347.347,0,0,0,0,.693h.693a.347.347,0,0,0,0-.693Z" transform="translate(-390.317 -367.358)"/>
    <path id="Path_40" data-name="Path 40" d="M73.04,204h-.693a.347.347,0,0,0,0,.693h.693a.347.347,0,1,0,0-.693Z" transform="translate(-68.88 -176.026)"/>
    <path id="Path_41" data-name="Path 41" d="M73.04,244h-.693a.347.347,0,0,0,0,.693h.693a.347.347,0,1,0,0-.693Z" transform="translate(-68.88 -214.292)"/>
    <path id="Path_42" data-name="Path 42" d="M73.04,284h-.693a.347.347,0,0,0,0,.693h.693a.347.347,0,0,0,0-.693Z" transform="translate(-68.88 -252.558)"/>
    <path id="Path_43" data-name="Path 43" d="M73.04,324h-.693a.347.347,0,1,0,0,.693h.693a.347.347,0,1,0,0-.693Z" transform="translate(-68.88 -290.825)"/>
    <path id="Path_44" data-name="Path 44" d="M73.04,364h-.693a.347.347,0,1,0,0,.693h.693a.347.347,0,1,0,0-.693Z" transform="translate(-68.88 -329.091)"/>
    <path id="Path_45" data-name="Path 45" d="M73.04,404h-.693a.347.347,0,1,0,0,.693h.693a.347.347,0,1,0,0-.693Z" transform="translate(-68.88 -367.358)"/>
  </g>
</svg>
