<svg id="clock_vqinc0glf1v0" xmlns="http://www.w3.org/2000/svg" width="22.81" height="22.81" viewBox="0 0 22.81 22.81">
  <g id="_02_Clock">
    <path id="Path_46" data-name="Path 46" d="M11.405,0A11.405,11.405,0,1,0,22.81,11.405,11.405,11.405,0,0,0,11.405,0Zm0,22.078A10.673,10.673,0,1,1,22.078,11.405,10.673,10.673,0,0,1,11.405,22.078Z"/>
    <path id="Path_47" data-name="Path 47" d="M44.125,34.288a9.837,9.837,0,1,0,9.837,9.837A9.837,9.837,0,0,0,44.125,34.288Zm0,18.941a9.1,9.1,0,1,1,9.1-9.1A9.1,9.1,0,0,1,44.125,53.229Z" transform="translate(-32.719 -32.719)"/>
    <path id="Path_48" data-name="Path 48" d="M66.435,241.678a.366.366,0,0,0-.366-.366h-1a.366.366,0,1,0,0,.732h1A.366.366,0,0,0,66.435,241.678Z" transform="translate(-61.744 -230.273)"/>
    <path id="Path_49" data-name="Path 49" d="M397.46,241.312h-1a.366.366,0,1,0,0,.732h1a.366.366,0,1,0,0-.732Z" transform="translate(-377.976 -230.273)"/>
    <path id="Path_50" data-name="Path 50" d="M241.678,396.08a.366.366,0,0,0-.366.366v1a.366.366,0,0,0,.732,0v-1A.366.366,0,0,0,241.678,396.08Z" transform="translate(-230.273 -377.961)"/>
    <path id="Path_51" data-name="Path 51" d="M241.678,66.434a.366.366,0,0,0,.366-.366v-1a.366.366,0,1,0-.732,0v1A.366.366,0,0,0,241.678,66.434Z" transform="translate(-230.273 -61.744)"/>
    <path id="Path_52" data-name="Path 52" d="M154.03,375.376a.366.366,0,0,0-.5.134l-.5.866a.366.366,0,1,0,.631.37l0,0,.5-.866A.366.366,0,0,0,154.03,375.376Z" transform="translate(-145.982 -358.157)"/>
    <path id="Path_53" data-name="Path 53" d="M318.84,89.855a.366.366,0,0,0,.5-.134l.5-.866a.366.366,0,0,0-.631-.37l0,0-.5.866a.366.366,0,0,0,.136.5Z" transform="translate(-304.078 -84.264)"/>
    <path id="Path_54" data-name="Path 54" d="M89.415,318.713l-.865.5a.366.366,0,0,0,.184.683.357.357,0,0,0,.182-.049l.865-.5a.366.366,0,0,0-.366-.634Z" transform="translate(-84.324 -304.088)"/>
    <path id="Path_55" data-name="Path 55" d="M375.709,154.2a.357.357,0,0,0,.182-.049l.866-.5a.366.366,0,1,0-.362-.636l0,0-.866.5a.366.366,0,0,0,.184.683Z" transform="translate(-358.172 -145.966)"/>
    <path id="Path_56" data-name="Path 56" d="M88.609,153.715l.865.5a.361.361,0,0,0,.183.049.366.366,0,0,0,.183-.683l-.865-.5a.366.366,0,0,0-.366.634Z" transform="translate(-84.383 -146.032)"/>
    <path id="Path_57" data-name="Path 57" d="M376.8,319.216l-.866-.5a.366.366,0,0,0-.366.634l.866.5a.361.361,0,0,0,.183.049.366.366,0,0,0,.183-.683Z" transform="translate(-358.217 -304.088)"/>
    <path id="Path_58" data-name="Path 58" d="M153.572,89.775a.366.366,0,0,0,.635-.366l-.5-.866a.366.366,0,0,0-.635.366Z" transform="translate(-146.024 -84.318)"/>
    <path id="Path_59" data-name="Path 59" d="M319.411,375.571a.366.366,0,0,0-.634.366l.5.866a.366.366,0,0,0,.636-.362l0,0Z" transform="translate(-304.149 -358.217)"/>
    <path id="Path_60" data-name="Path 60" d="M124.526,228.992a.931.931,0,0,0-.853.564H118.91a.366.366,0,0,0,0,.732h4.763a.938.938,0,0,0,.487.487v3.3a.366.366,0,0,0,.732,0v-3.3a.929.929,0,0,0-.366-1.783Zm0,.732a.2.2,0,0,1,.2.2c0,.22-.4.22-.4,0A.2.2,0,0,1,124.526,229.724Z" transform="translate(-113.121 -218.516)"/>
  </g>
</svg>
