<svg xmlns="http://www.w3.org/2000/svg" width="14.989" height="22" viewBox="0 0 14.989 22">
  <g id="Layer_1" data-name="Layer 1" transform="translate(-4.506 -1)">
    <path id="Path_3" data-name="Path 3" d="M12,2a6.5,6.5,0,0,1,5.615,9.757L12,21.509,6.381,11.757A6.5,6.5,0,0,1,12,2Zm0-1A7.5,7.5,0,0,0,5.514,12.256l6.044,10.488a.51.51,0,0,0,.884,0l6.044-10.488A7.5,7.5,0,0,0,12,1Z"/>
    <path id="Path_4" data-name="Path 4" d="M12,6A2.5,2.5,0,1,1,9.5,8.5,2.5,2.5,0,0,1,12,6Zm0-1a3.5,3.5,0,1,0,3.5,3.5A3.5,3.5,0,0,0,12,5Z" transform="translate(0 0)"/>
  </g>
</svg>
