<svg xmlns="http://www.w3.org/2000/svg" width="21.973" height="21.973" viewBox="0 0 21.973 21.973">
  <g id="_5896925_cloud_moon_rain_sun_weather_icon" data-name="5896925_cloud_moon_rain_sun_weather_icon" transform="translate(-1 -1)">
    <path id="Path_22" data-name="Path 22" d="M19.036,12a7.116,7.116,0,1,0,7.116,7.088A7.116,7.116,0,0,0,19.036,12Z" transform="translate(-7.05 -7.102)"/>
    <path id="Path_23" data-name="Path 23" d="M31.354,3.438A.354.354,0,0,1,31,3.084V1.354a.354.354,0,0,1,.709,0V3.084A.354.354,0,0,1,31.354,3.438Z" transform="translate(-19.368)"/>
    <path id="Path_24" data-name="Path 24" d="M31.354,58.565A.354.354,0,0,1,31,58.21V56.484a.354.354,0,0,1,.709,0V58.21A.354.354,0,0,1,31.354,58.565Z" transform="translate(-19.368 -35.592)"/>
    <path id="Path_25" data-name="Path 25" d="M58.21,31.709H56.484a.354.354,0,0,1,0-.709H58.21a.354.354,0,1,1,0,.709Z" transform="translate(-35.592 -19.368)"/>
    <path id="Path_26" data-name="Path 26" d="M3.084,31.709H1.354a.354.354,0,0,1,0-.709H3.084a.354.354,0,0,1,0,.709Z" transform="translate(0 -19.368)"/>
    <path id="Path_27" data-name="Path 27" d="M50.358,50.719a.354.354,0,0,1-.252-.1L48.895,49.4a.354.354,0,0,1,.5-.5l1.212,1.212a.354.354,0,0,1-.252.606Z" transform="translate(-30.866 -30.872)"/>
    <path id="Path_28" data-name="Path 28" d="M11.408,11.769a.354.354,0,0,1-.252-.1L9.945,10.454a.354.354,0,0,1,.5-.5l1.212,1.212a.354.354,0,0,1-.252.606Z" transform="translate(-5.72 -5.726)"/>
    <path id="Path_29" data-name="Path 29" d="M10.171,50.713a.354.354,0,0,1-.252-.606l1.212-1.212a.354.354,0,0,1,.5.5l-1.212,1.212A.354.354,0,0,1,10.171,50.713Z" transform="translate(-5.69 -30.866)"/>
    <path id="Path_30" data-name="Path 30" d="M49.121,11.763a.354.354,0,0,1-.252-.606l1.212-1.212a.354.354,0,0,1,.5.5l-1.212,1.212A.354.354,0,0,1,49.121,11.763Z" transform="translate(-30.836 -5.72)"/>
  </g>
</svg>
