<svg xmlns="http://www.w3.org/2000/svg" width="22" height="17.879" viewBox="0 0 22 17.879">
  <path id="twitter" d="M25.574,12.442a8.981,8.981,0,0,1-2.592.711,4.522,4.522,0,0,0,1.985-2.5,9.035,9.035,0,0,1-2.866,1.1,4.517,4.517,0,0,0-7.691,4.117,12.815,12.815,0,0,1-9.3-4.716,4.519,4.519,0,0,0,1.4,6.026,4.5,4.5,0,0,1-2.044-.565c0,.019,0,.038,0,.057A4.517,4.517,0,0,0,8.079,21.1a4.538,4.538,0,0,1-1.189.158,4.472,4.472,0,0,1-.849-.081,4.518,4.518,0,0,0,4.216,3.135,9.108,9.108,0,0,1-6.682,1.869A12.836,12.836,0,0,0,23.335,15.363q0-.293-.013-.585A9.142,9.142,0,0,0,25.574,12.442Z" transform="translate(-3.574 -10.326)"/>
</svg>
