<svg xmlns="http://www.w3.org/2000/svg" width="22" height="22.106" viewBox="0 0 22 22.106">
  <path id="WhatsApp-Logo" d="M16.04,12.017c-.274-.137-1.619-.8-1.87-.89s-.433-.137-.616.137-.707.891-.867,1.073-.319.206-.593.068a7.472,7.472,0,0,1-2.2-1.358,8.249,8.249,0,0,1-1.523-1.9c-.16-.274-.017-.422.12-.559s.274-.32.411-.48a1.865,1.865,0,0,0,.274-.457.5.5,0,0,0-.023-.479c-.068-.137-.616-1.484-.844-2.032s-.448-.461-.616-.47-.342-.01-.525-.01a1.006,1.006,0,0,0-.73.342A3.07,3.07,0,0,0,5.48,7.29,5.324,5.324,0,0,0,6.6,10.122a12.2,12.2,0,0,0,4.676,4.133,15.713,15.713,0,0,0,1.56.577,3.751,3.751,0,0,0,1.724.108,2.819,2.819,0,0,0,1.847-1.3,2.289,2.289,0,0,0,.16-1.3c-.068-.114-.251-.183-.525-.32m-4.994,6.819h0a9.091,9.091,0,0,1-4.634-1.269l-.332-.2-3.446.9.92-3.36-.216-.344a9.1,9.1,0,1,1,7.713,4.267M18.795,1.982A10.957,10.957,0,0,0,1.554,15.2L0,20.876l5.807-1.523a10.944,10.944,0,0,0,5.235,1.333h0a10.959,10.959,0,0,0,7.749-18.7" transform="translate(0 1.23)" fill-rule="evenodd"/>
</svg>
